<?xml version="1.0" encoding="utf-8"?>
<!-- Generator: Adobe Illustrator 18.1.0, SVG Export Plug-In . SVG Version: 6.00 Build 0)  -->
<svg version="1.1" id="Capa_1" xmlns="http://www.w3.org/2000/svg" xmlns:xlink="http://www.w3.org/1999/xlink" x="0px" y="0px"
	 viewBox="0 0 160.7 222.2" enable-background="new 0 0 160.7 222.2" xml:space="preserve">
<g>
	<rect x="8.6" y="204" fill="#FFFFFF" width="142.2" height="14.2"/>
	<g>
		<path fill="#FFFFFF" d="M77,122.8c0,0.4,0.2,0.7,0.7,0.7c0.3,0,0.6-0.1,0.8-0.3v-1h-0.8C77.3,122.2,77,122.4,77,122.8z"/>
		<path fill="#FFFFFF" d="M73.8,133.8c-0.7,0-1.4,0.4-1.9,0.8v4.8c0.4,0.6,1.1,1,1.8,1c1.2,0,2.1-0.9,2.1-3.4
			C75.8,134.7,75,133.8,73.8,133.8z"/>
		<path fill="#FFFFFF" d="M85,133.8c-1.3,0-2,0.9-2,3.3c0,2.4,0.7,3.4,2,3.4c1.3,0,2-0.9,2-3.4C87.1,134.6,86.3,133.8,85,133.8z"/>
		<path fill="#FFFFFF" d="M109.3,120.4c-0.6,0-0.9,0.6-0.9,1.1h1.7C110.2,120.9,110,120.4,109.3,120.4z"/>
		<path fill="#FFFFFF" d="M62.2,133.8c-1.3,0-2,0.9-2,3.3c0,2.4,0.7,3.4,2,3.4c1.3,0,2-0.9,2-3.4C64.2,134.6,63.5,133.8,62.2,133.8z
			"/>
		<path fill="#FFFFFF" d="M114.5,139.1c0,0.9,0.5,1.5,1.5,1.5c0.7,0,1.3-0.3,1.8-0.7v-2.1h-1.7C115,137.8,114.5,138.4,114.5,139.1z"
			/>
		<path fill="#FFFFFF" d="M97.3,120.3c-0.6,0-0.9,0.4-0.9,1.5c0,1.1,0.3,1.5,0.9,1.5c0.6,0,0.9-0.4,0.9-1.5
			C98.2,120.7,97.9,120.3,97.3,120.3z"/>
		<path fill="#FFFFFF" d="M59.5,123v-2.4c-0.2-0.1-0.5-0.2-0.8-0.2c-0.6,0-1,0.4-1,1.5c0,1.1,0.4,1.5,0.9,1.5
			C58.9,123.4,59.3,123.2,59.5,123z"/>
		<path fill="#FFFFFF" d="M117.5,119.8c0-0.7-0.4-1-1.2-1h-0.7v2.1h0.7C117.1,121,117.5,120.5,117.5,119.8z"/>
		<path fill="#FFFFFF" d="M45.8,74.8c0-12.2-3.4-16.8-13.7-16.8h-6.7v34.1c1.7,0.5,5,1.1,8.4,1.1C39.9,93.2,45.8,90.2,45.8,74.8z"/>
		<path fill="#FFFFFF" d="M27,120.4c-0.6,0-0.9,0.6-0.9,1.1h1.7C27.9,120.9,27.7,120.4,27,120.4z"/>
		<path fill="#FFFFFF" d="M63.8,120.4c-0.6,0-0.9,0.6-0.9,1.1h1.7C64.6,120.9,64.4,120.4,63.8,120.4z"/>
		<path fill="#FFFFFF" d="M39.2,121.9c0,1.1,0.3,1.5,0.9,1.5c0.6,0,0.9-0.4,0.9-1.5c0-1.1-0.3-1.5-0.9-1.5
			C39.5,120.3,39.2,120.7,39.2,121.9z"/>
		<path fill="#FFFFFF" d="M52.3,121.9c0-1.1-0.3-1.5-0.9-1.5c-0.6,0-0.9,0.4-0.9,1.5c0,1.1,0.3,1.5,0.9,1.5
			C52,123.4,52.3,123,52.3,121.9z"/>
		<path fill="#FFFFFF" d="M16.8,120.9c0-1.6-0.5-2.1-1.8-2.1h-0.8v4.3c0.2,0.1,0.6,0.1,1.1,0.1C16.1,123.3,16.8,122.8,16.8,120.9z"
			/>
		<path fill="#FFFFFF" d="M35.8,133.8c-1.4,0-1.9,1.2-1.9,2.5h3.8C37.7,134.9,37.3,133.8,35.8,133.8z"/>
		<path fill="#FFFFFF" d="M92.2,123.4c0.6,0,0.9-0.4,0.9-1.5c0-1.1-0.4-1.5-0.9-1.5c-0.3,0-0.7,0.2-0.8,0.4v2.2
			C91.6,123.2,91.9,123.4,92.2,123.4z"/>
		<path fill="#FFFFFF" d="M141.9,120.3c-0.6,0-0.9,0.4-0.9,1.5c0,1.1,0.3,1.5,0.9,1.5c0.6,0,0.9-0.4,0.9-1.5
			C142.8,120.7,142.5,120.3,141.9,120.3z"/>
		<path fill="#FFFFFF" d="M138.8,133.8c-1.3,0-2,0.9-2,3.3c0,2.4,0.7,3.4,2,3.4c1.3,0,2-0.9,2-3.4
			C140.8,134.6,140.1,133.8,138.8,133.8z"/>
		<path fill="#FFFFFF" d="M150.8,4H8.4l0,156.4h142.5L150.8,4z M103.5,119.5h0.7v-0.8l1.2-0.4v1.2h1.2v0.9h-1.2v2.3
			c0,0.3,0.2,0.5,0.5,0.5c0.3,0,0.5-0.1,0.7-0.2l0.2,0.9c-0.3,0.2-0.8,0.3-1.3,0.3c-0.8,0-1.4-0.4-1.4-1.6v-2.3h-0.7V119.5z
			 M62.3,47.5h40.1v11H89.1v44.9H75.6V58.5H62.3V47.5z M85.9,120.7c0-0.7,0.5-1.3,1.8-1.3c0.5,0,1,0.1,1.3,0.2l-0.2,0.9
			c-0.3-0.1-0.7-0.2-1.1-0.2c-0.4,0-0.6,0.2-0.6,0.4c0,0.7,2,0.5,2,2c0,0.8-0.6,1.5-1.8,1.5c-0.6,0-1.1-0.2-1.4-0.3l0.3-0.9
			c0.2,0.2,0.7,0.3,1.1,0.3c0.4,0,0.7-0.2,0.7-0.5C87.9,122.1,85.9,122.3,85.9,120.7z M82.9,120.4c-0.3,0-0.6,0.1-0.8,0.3v3.5h-1.2
			v-4.7h0.9l0.2,0.5c0.3-0.3,0.8-0.6,1.5-0.6c1.2,0,1.6,0.7,1.6,1.9v2.9h-1.3v-2.8C83.7,120.7,83.5,120.4,82.9,120.4z M75.4,119.5
			l0,1.1c-0.2,0-0.4-0.1-0.6-0.1c-0.3,0-0.6,0.1-0.8,0.3v3.4h-1.2v-4.7h0.9l0.1,0.6h0c0.1-0.3,0.6-0.7,1.1-0.7
			C75.1,119.4,75.3,119.5,75.4,119.5z M63.9,119.4c1.4,0,2,1,2,2.2v0.5h-2.9c0,0.7,0.4,1.2,1.2,1.2c0.5,0,1-0.2,1.4-0.4l0.2,0.9
			c-0.4,0.2-1,0.5-1.8,0.5c-1.4,0-2.3-0.9-2.3-2.4C61.7,120.4,62.4,119.4,63.9,119.4z M12.3,47.5h20.2c16.6,0,27.1,6.5,27.1,27.3
			c0,18-7.8,29.4-26.6,29.4c-8.8,0-15.3-1.5-20.8-3.1V47.5z M46.5,120.3v-0.8h1.8v4.7H47v-3.8L46.5,120.3z M47,118.8v-1.1h1.3v1.1
			H47z M45.9,119.5l0,1.1c-0.2,0-0.4-0.1-0.6-0.1c-0.3,0-0.6,0.1-0.8,0.3v3.4h-1.2v-4.7h0.9l0.1,0.6h0c0.1-0.3,0.6-0.7,1.1-0.7
			C45.6,119.4,45.8,119.5,45.9,119.5z M42.3,121.9c0,1.6-0.8,2.4-2.2,2.4c-1.4,0-2.2-0.8-2.2-2.4c0-1.4,0.8-2.4,2.2-2.4
			C41.5,119.4,42.3,120.5,42.3,121.9z M34.2,120.4v-0.9h0.7v-0.8l1.2-0.4v1.2h1.2v0.9h-1.2v2.3c0,0.3,0.2,0.5,0.5,0.5
			c0.3,0,0.5-0.1,0.7-0.2l0.2,0.9c-0.3,0.2-0.8,0.3-1.3,0.3c-0.8,0-1.4-0.4-1.4-1.6v-2.3H34.2z M27.4,123.4c0.5,0,1-0.2,1.4-0.4
			l0.2,0.9c-0.4,0.2-1,0.5-1.8,0.5c-1.4,0-2.3-0.9-2.3-2.4c0-1.4,0.7-2.4,2.2-2.4c1.4,0,2,1,2,2.2v0.5h-2.9
			C26.2,122.9,26.6,123.4,27.4,123.4z M24.6,119.5l0,1.1c-0.2,0-0.4-0.1-0.6-0.1c-0.3,0-0.6,0.1-0.8,0.3v3.4h-1.2v-4.7h0.9l0.1,0.6
			h0c0.1-0.3,0.6-0.7,1.1-0.7C24.3,119.4,24.5,119.5,24.6,119.5z M19,120.3v-0.8h1.8v4.7h-1.2v-3.8L19,120.3z M19.5,118.8v-1.1h1.3
			v1.1H19.5z M12.9,117.8h2.1c1.9,0,3,0.8,3,3.2c0,2.1-0.9,3.4-2.9,3.4c-0.9,0-1.7-0.2-2.3-0.3V117.8z M26,142.3l-0.3-12h-0.1
			c-0.3,1.5-0.5,2.6-0.7,3.4l-2,8.6h-4.1l-1.9-8.6c-0.2-0.8-0.4-1.9-0.7-3.4h-0.1l-0.2,12h-2.5l0.5-14.2h4.7c0,0,1.6,7.2,2.4,11.8
			h0.1c0.9-4.6,2.8-11.8,2.8-11.8h4.7l0.5,14.2H26z M29.9,121.9c0-1.5,0.8-2.4,2.2-2.4c0.6,0,1.2,0.1,1.6,0.4l-0.3,0.8
			c-0.3-0.2-0.8-0.3-1.2-0.3c-0.6,0-1.1,0.4-1.1,1.5c0,1.1,0.4,1.5,1.1,1.5c0.5,0,1-0.2,1.3-0.4l0.2,0.9c-0.3,0.1-0.9,0.4-1.6,0.4
			C30.7,124.3,29.9,123.5,29.9,121.9z M40.3,137.9h-6.4c0,1.6,0.9,2.5,2.7,2.5c1.1,0,2.1-0.4,3-0.9l0.5,1.9c-0.9,0.5-2.3,1-3.9,1
			c-3.2,0-5.1-2-5.1-5.4c0-3.2,1.5-5.3,4.8-5.3c3.1,0,4.3,2.3,4.3,4.9V137.9z M46.2,142.5c-1.8,0-3-0.9-3-3.5V134h-1.5v-2h1.5v-1.8
			l2.7-0.9v2.7h2.8v2h-2.8v5.1c0,0.7,0.4,1.2,1.1,1.2c0.6,0,1.2-0.2,1.6-0.4l0.4,2C48.4,142.2,47.3,142.5,46.2,142.5z M49.2,121.9
			c0-1.4,0.8-2.4,2.2-2.4c1.4,0,2.2,1,2.2,2.4c0,1.6-0.8,2.4-2.2,2.4C50,124.3,49.2,123.5,49.2,121.9z M56.6,134.3
			c-0.3-0.1-0.8-0.2-1.3-0.2c-0.7,0-1.4,0.3-1.9,0.7v7.5h-2.7V132h1.9l0.3,1.4H53c0.3-0.7,1.2-1.6,2.5-1.6c0.5,0,1,0.1,1.2,0.1
			L56.6,134.3z M56.4,121.9c0-1.5,0.9-2.4,2-2.4c0.5,0,0.9,0.2,1.2,0.5c-0.1-0.3-0.1-0.5-0.1-0.9v-1.4h1.2v6.6h-1l-0.1-0.5
			c-0.2,0.3-0.6,0.6-1.2,0.6C57.3,124.3,56.4,123.5,56.4,121.9z M62.2,142.5c-3.1,0-4.8-1.9-4.8-5.4c0-3,1.7-5.3,4.8-5.3
			c3.1,0,4.8,2.3,4.8,5.3C67,140.6,65.3,142.5,62.2,142.5z M68.4,117.8h4.4v1.1h-1.6v5.4H70v-5.4h-1.6V117.8z M74,142.5
			c-1.2,0-1.9-0.4-2.5-1.2c0,0,0.4,1.1,0.4,1.9v3.1h-2.8V132h2.4l0.2,1.1c0.5-0.7,1.6-1.3,2.7-1.3c2.4,0,4.1,1.7,4.1,5.3
			C78.5,140.7,76.4,142.5,74,142.5z M79.8,124.2h-0.8l-0.2-0.6c-0.2,0.3-0.7,0.6-1.4,0.6c-0.9,0-1.6-0.6-1.6-1.5
			c0-0.9,0.6-1.4,1.8-1.4h1v-0.2c0-0.6-0.3-0.8-0.8-0.8c-0.6,0-1,0.1-1.4,0.3l-0.3-0.9c0.5-0.2,1.1-0.4,1.8-0.4
			c1.3,0,1.9,0.6,1.9,1.8V124.2z M85,142.5c-3.1,0-4.8-1.9-4.8-5.4c0-3,1.7-5.3,4.8-5.3c3.1,0,4.8,2.3,4.8,5.3
			C89.9,140.6,88.1,142.5,85,142.5z M91.4,124.6v1.4h-1.3v-6.5h1.1l0.1,0.5c0.2-0.3,0.7-0.6,1.2-0.6c1.1,0,1.9,0.8,1.9,2.4
			c0,1.6-1,2.4-2,2.4c-0.5,0-0.8-0.2-1.1-0.5C91.2,123.8,91.4,124.3,91.4,124.6z M96.4,142.4c0,0-0.8,0.2-1.5,0.2
			c-2.1,0-2.9-1.1-2.9-2.9v-11.8h2.7v11.6c0,0.9,0.5,1,1.7,1V142.4z M95.1,121.9c0-1.4,0.8-2.4,2.2-2.4c1.4,0,2.2,1,2.2,2.4
			c0,1.6-0.8,2.4-2.2,2.4C95.9,124.3,95.1,123.5,95.1,121.9z M101.7,127.8v2.5h-2.8v-2.5H101.7z M101.7,142.3H99V134l-1.2-0.3V132
			h3.9V142.3z M103.1,120.6c-0.2,0-0.4-0.1-0.6-0.1c-0.3,0-0.6,0.1-0.8,0.3v3.4h-1.2v-4.7h0.9l0.1,0.6h0c0.1-0.3,0.6-0.7,1.1-0.7
			c0.2,0,0.4,0,0.5,0.1L103.1,120.6z M108,142.5c-1.8,0-3-0.9-3-3.5V134h-1.5v-2h1.5v-1.8l2.7-0.9v2.7h2.8v2h-2.8v5.1
			c0,0.7,0.4,1.2,1.1,1.2c0.6,0,1.2-0.2,1.6-0.4l0.4,2C110.2,142.2,109.1,142.5,108,142.5z M111.4,122.2h-2.9c0,0.7,0.4,1.2,1.2,1.2
			c0.5,0,1-0.2,1.4-0.4l0.2,0.9c-0.4,0.2-1,0.5-1.8,0.5c-1.4,0-2.3-0.9-2.3-2.4c0-1.4,0.7-2.4,2.2-2.4c1.4,0,2,1,2,2.2V122.2z
			 M120.5,142.3h-1.9l-0.4-1.2c-0.5,0.7-1.6,1.4-3,1.4c-2.1,0-3.5-1.3-3.5-3.3c0-1.9,1.4-3.1,3.9-3.1h2.2v-0.5
			c0-1.3-0.8-1.7-1.8-1.7c-1.2,0-2.3,0.3-3.1,0.7l-0.7-2c1-0.4,2.4-0.8,4.1-0.8c2.9,0,4.2,1.3,4.2,4V142.3z M114.4,124.2v-6.4h2
			c1.3,0,2.4,0.6,2.4,2c0,1.2-0.9,2.2-2.4,2.2h-0.7v2.2H114.4z M122.5,123.6c-0.2,0.3-0.7,0.7-1.5,0.7c-1.2,0-1.7-0.6-1.7-1.9v-2.8
			h1.2v2.8c0,0.7,0.3,1,0.8,1c0.3,0,0.6-0.1,0.8-0.3v-3.5h1.3v4.7h-0.8L122.5,123.6z M120.2,118.1l2.4-0.7l0.2,0.9l-2.4,0.5
			L120.2,118.1z M132.1,142.3h-2.8v-6.1c0-1.6-0.6-2.3-1.9-2.3c-0.7,0-1.3,0.3-1.8,0.6v7.8h-2.8V132h1.9l0.4,1.2
			c0.6-0.7,1.7-1.4,3.3-1.4c2.6,0,3.6,1.5,3.6,4.1V142.3z M127,119.4c1.1,0,1.9,0.8,1.9,2.4c0,1.6-1,2.4-2,2.4
			c-0.7,0-1.1-0.3-1.4-0.7l-0.2,0.6h-0.7v-6.6h1.2v1.6l-0.1,0.8C125.9,119.7,126.4,119.4,127,119.4z M131.8,123.3v0.9
			c0,0-0.4,0.1-0.7,0.1c-1,0-1.3-0.5-1.3-1.3v-5.3h1.2v5.3C131,123.3,131.3,123.3,131.8,123.3z M132.4,120.3v-0.8h1.8v4.7H133v-3.8
			L132.4,120.3z M132.9,118.8v-1.1h1.3v1.1H132.9z M138.8,142.5c-3.1,0-4.8-1.9-4.8-5.4c0-3,1.7-5.3,4.8-5.3c3.1,0,4.8,2.3,4.8,5.3
			C143.6,140.6,141.9,142.5,138.8,142.5z M137.6,123.4c0.5,0,1-0.2,1.3-0.4l0.2,0.9c-0.3,0.1-0.9,0.4-1.6,0.4
			c-1.4,0-2.2-0.8-2.2-2.4c0-1.5,0.8-2.4,2.2-2.4c0.6,0,1.1,0.1,1.6,0.4l-0.3,0.8c-0.3-0.2-0.8-0.3-1.2-0.3c-0.6,0-1.1,0.4-1.1,1.5
			C136.5,122.9,136.9,123.4,137.6,123.4z M141.9,124.3c-1.4,0-2.2-0.8-2.2-2.4c0-1.4,0.8-2.4,2.2-2.4c1.4,0,2.2,1,2.2,2.4
			C144.1,123.5,143.3,124.3,141.9,124.3z M126.2,84.9h-5v18.5h-13.1V47.5h18c11.7,0,21.9,5.7,21.9,18
			C148.1,75.9,140.2,84.9,126.2,84.9z"/>
		<path fill="#FFFFFF" d="M126.7,123.4c0.5,0,0.9-0.4,0.9-1.5c0-1.1-0.4-1.5-0.9-1.5c-0.3,0-0.7,0.2-0.9,0.4v2.2
			C126,123.2,126.3,123.4,126.7,123.4z"/>
		<path fill="#FFFFFF" d="M126,58.5h-4.8v16.3h4.8c5.3,0,8.2-4,8.2-8.8C134.2,61.6,131.3,58.5,126,58.5z"/>
	</g>
	<path fill="#FFFFFF" d="M54.6,196c-0.9,0-1.6-0.7-1.6-1.6c0-0.9,0.7-1.6,1.6-1.6c0.9,0,1.6,0.7,1.6,1.6
		C56.2,195.2,55.5,196,54.6,196 M54.6,188.7c-0.9,0-1.6-0.7-1.6-1.6c0-0.9,0.7-1.6,1.6-1.6c0.9,0,1.6,0.7,1.6,1.6
		C56.2,188,55.5,188.7,54.6,188.7 M54.6,180.8c-0.9,0-1.6-0.7-1.6-1.6c0-0.9,0.7-1.6,1.6-1.6c0.9,0,1.6,0.7,1.6,1.6
		C56.2,180.1,55.5,180.8,54.6,180.8 M54.6,173.2c-0.9,0-1.6-0.7-1.6-1.6c0-0.9,0.7-1.6,1.6-1.6c0.9,0,1.6,0.7,1.6,1.6
		C56.2,172.5,55.5,173.2,54.6,173.2"/>
	<path fill="#FFFFFF" d="M107.1,196c-0.9,0-1.6-0.7-1.6-1.6c0-0.9,0.7-1.6,1.6-1.6c0.9,0,1.6,0.7,1.6,1.6
		C108.7,195.2,108,196,107.1,196 M107.1,188.7c-0.9,0-1.6-0.7-1.6-1.6c0-0.9,0.7-1.6,1.6-1.6c0.9,0,1.6,0.7,1.6,1.6
		C108.7,188,108,188.7,107.1,188.7 M107.1,180.8c-0.9,0-1.6-0.7-1.6-1.6c0-0.9,0.7-1.6,1.6-1.6c0.9,0,1.6,0.7,1.6,1.6
		C108.7,180.1,108,180.8,107.1,180.8 M107.1,173.2c-0.9,0-1.6-0.7-1.6-1.6c0-0.9,0.7-1.6,1.6-1.6c0.9,0,1.6,0.7,1.6,1.6
		C108.7,172.5,108,173.2,107.1,173.2"/>
	<path fill="#FFFFFF" d="M21.1,196.6h16.8v2.8c0,0.5,0.4,0.9,0.9,0.9h2.6c0.5,0,0.9-0.4,0.9-0.9v-2.8H43c0.4,0,0.7-0.3,0.7-0.7
		c0.2-1.4,0.6-5.1,0.6-9.3c0-6.4-0.3-12.3-1.2-16.1c-0.7-3-1.6-5.1-2.7-5.8c-0.9-0.6-3.6-1.2-10.9-1.2c-7.3,0-10,0.6-10.9,1.2
		c-1.1,0.7-2,2.8-2.7,5.8c-0.9,3.9-1.2,9.7-1.2,16.1c0,4.2,0.4,7.9,0.6,9.3c0.1,0.4,0.3,0.7,0.7,0.7h0.7v2.8c0,0.5,0.4,0.9,0.9,0.9
		h2.6c0.4,0,0.9-0.4,0.9-0.9V196.6z M29.5,187.6c-6.1,0-11.4-0.6-11.7-1.2c-0.1-0.2-0.3-1.7-0.3-3c0-4.6,0.5-11.4,1.2-12.9
		c0.3-0.6,3.5-1,10.8-1c7.3,0,10.6,0.5,10.8,1c0.7,1.5,1.2,8.3,1.2,12.9c0,1.3-0.2,2.8-0.3,3C40.9,187,35.6,187.6,29.5,187.6
		 M29.5,167.3c-5.5,0-8.9,0.3-10.3,0.7c0.2-0.5,0.4-1.2,1-1.6c0.6-0.4,2.8-0.8,9.3-0.8c6.5,0,8.7,0.4,9.3,0.8c0.6,0.4,0.9,1.1,1,1.6
		C38.4,167.5,35,167.3,29.5,167.3 M17.8,191.9c0-1,0.9-1.9,1.9-1.9c1,0,1.9,0.9,1.9,1.9c0,1-0.9,1.9-1.9,1.9
		C18.7,193.8,17.8,192.9,17.8,191.9 M41.4,191.9c0,1-0.9,1.9-1.9,1.9c-1,0-1.9-0.9-1.9-1.9c0-1,0.9-1.9,1.9-1.9
		C40.5,189.9,41.4,190.8,41.4,191.9 M36.9,172.2c0,0.3,0.3,0.6,0.6,0.6c0.3,0,0.6-0.3,0.6-0.6c0-0.3-0.3-0.6-0.6-0.6
		C37.1,171.5,36.9,171.8,36.9,172.2 M33.7,172.2c0,0.3,0.3,0.6,0.6,0.6c0.3,0,0.6-0.3,0.6-0.6c0-0.3-0.3-0.6-0.6-0.6
		C34,171.5,33.7,171.8,33.7,172.2 M30.5,172.2c0,0.3,0.3,0.6,0.6,0.6c0.3,0,0.6-0.3,0.6-0.6c0-0.3-0.3-0.6-0.6-0.6
		C30.8,171.5,30.5,171.8,30.5,172.2 M27.3,172.2c0,0.3,0.3,0.6,0.6,0.6c0.3,0,0.6-0.3,0.6-0.6c0-0.3-0.3-0.6-0.6-0.6
		C27.6,171.5,27.3,171.8,27.3,172.2 M24.1,172.2c0,0.3,0.3,0.6,0.6,0.6c0.3,0,0.6-0.3,0.6-0.6c0-0.3-0.3-0.6-0.6-0.6
		C24.4,171.5,24.1,171.8,24.1,172.2 M33.7,174.8c0,0.3,0.3,0.6,0.6,0.6c0.3,0,0.6-0.3,0.6-0.6c0-0.3-0.3-0.6-0.6-0.6
		C34,174.2,33.7,174.5,33.7,174.8 M20.9,174.8c0,0.3,0.3,0.6,0.6,0.6c0.3,0,0.6-0.3,0.6-0.6c0-0.3-0.3-0.6-0.6-0.6
		C21.2,174.2,20.9,174.5,20.9,174.8 M24.1,174.8c0,0.3,0.3,0.6,0.6,0.6c0.3,0,0.6-0.3,0.6-0.6c0-0.3-0.3-0.6-0.6-0.6
		C24.4,174.2,24.1,174.5,24.1,174.8 M20.9,172.2c0,0.3,0.3,0.6,0.6,0.6c0.3,0,0.6-0.3,0.6-0.6c0-0.3-0.3-0.6-0.6-0.6
		C21.2,171.5,20.9,171.8,20.9,172.2 M30.5,174.8c0,0.3,0.3,0.6,0.6,0.6c0.3,0,0.6-0.3,0.6-0.6c0-0.3-0.3-0.6-0.6-0.6
		C30.8,174.2,30.5,174.5,30.5,174.8 M27.3,174.8c0,0.3,0.3,0.6,0.6,0.6c0.3,0,0.6-0.3,0.6-0.6c0-0.3-0.3-0.6-0.6-0.6
		C27.6,174.2,27.3,174.5,27.3,174.8 M36.9,174.8c0,0.3,0.3,0.6,0.6,0.6c0.3,0,0.6-0.3,0.6-0.6c0-0.3-0.3-0.6-0.6-0.6
		C37.1,174.2,36.9,174.5,36.9,174.8"/>
	<path fill-rule="evenodd" clip-rule="evenodd" fill="#FFFFFF" d="M80.8,170.2h4.9l0.5,2.8h-5.4h-5.4l0.5-2.8H80.8z M90.6,174.8
		c-0.9-3.9-1.7-4.6-3.8-4.6c0,0,1.9,5.5,1.9,12.7v2.2c0,0.6-0.2,0.8-1,0.8h-7h0h-7c-0.7,0-1-0.2-1-0.8v-2.2c0-7,1.9-12.7,1.9-12.7
		c-2.1,0-2.8,0.7-3.8,4.6c-0.7,2.8-1,5.8-1,11.9c0,5.6,0.7,9.8,0.7,9.8c0,0.3,0.1,0.4,0.4,0.4H72v-2.3c0-0.5,0.1-0.6,0.7-0.6H77
		l0.3,3.3h7l0.3-3.3h4.3c0.6,0,0.7,0.1,0.7,0.6v2.3h0.8c0.3,0,0.4,0,0.4-0.4c0,0,0.7-4.1,0.7-9.8C91.6,180.6,91.3,177.6,90.6,174.8
		 M97.3,185.9c0,7.6-1.7,14.5-1.7,14.5H80.8H66c0,0-1.7-6.9-1.7-14.5c0-17.4,4.9-21.8,15.7-21.8h0.8h0.8
		C92.5,164.1,97.3,168.5,97.3,185.9 M95.2,186.1c0-15.1-3.1-20.2-13.5-20.2h-0.8h-0.8c-10.4,0-13.5,5.1-13.5,20.2
		c0,5.6,1.4,12,1.4,12h5.3v-2.9H76v2.9h4.8h4.8v-2.9h2.9v2.9h5.3C93.8,198.1,95.2,191.7,95.2,186.1 M80.8,187.7c-0.6,0-1,0.5-1,1
		c0,0.6,0.5,1,1,1c0.6,0,1-0.5,1-1C81.9,188.1,81.4,187.7,80.8,187.7 M85,187.7c-0.6,0-1,0.5-1,1c0,0.6,0.5,1,1,1c0.6,0,1-0.5,1-1
		C86.1,188.1,85.6,187.7,85,187.7 M76.7,187.7c-0.6,0-1,0.5-1,1c0,0.6,0.5,1,1,1c0.6,0,1-0.5,1-1C77.7,188.1,77.2,187.7,76.7,187.7
		 M84.8,174.8c0,0.3,0.3,0.6,0.6,0.6c0.3,0,0.6-0.3,0.6-0.6c0-0.3-0.3-0.6-0.6-0.6C85.1,174.2,84.8,174.4,84.8,174.8 M81.7,174.8
		c0,0.3,0.3,0.6,0.6,0.6c0.3,0,0.6-0.3,0.6-0.6c0-0.3-0.3-0.6-0.6-0.6C82,174.2,81.7,174.4,81.7,174.8 M78.7,174.8
		c0,0.3,0.3,0.6,0.6,0.6c0.3,0,0.6-0.3,0.6-0.6c0-0.3-0.3-0.6-0.6-0.6C79,174.2,78.7,174.4,78.7,174.8 M75.6,174.8
		c0,0.3,0.3,0.6,0.6,0.6c0.3,0,0.6-0.3,0.6-0.6c0-0.3-0.3-0.6-0.6-0.6C75.9,174.2,75.6,174.4,75.6,174.8"/>
	<path fill="#FFFFFF" d="M144.5,186.4c0,3.2-0.8,8.2-1.1,9.4c-0.1,0.3-0.3,0.5-0.7,0.5h-0.8l-1.1-1.5c-0.2-0.2-0.3-0.3-0.8-0.3h-4.7
		c-0.3,0-0.4,0.2-0.4,0.5v1.2h-3.5h-3.5v-1.2c0-0.3-0.1-0.5-0.4-0.5h-4.7c-0.4,0-0.6,0.1-0.8,0.3l-1.1,1.5h-0.8
		c-0.4,0-0.6-0.2-0.7-0.5c-0.3-1.2-1.1-6.2-1.1-9.4c0-6.2,0.6-8.7,1.3-11.9c0.6-2.6,1.6-4.2,2.6-4.8c0.4-0.2,1.1-0.5,2.4-0.7
		c0-0.4,0.1-0.8,0.2-1c0.2-0.4,0.9-0.8,6.6-0.8c5.7,0,6.4,0.4,6.6,0.8c0.1,0.2,0.2,0.6,0.2,1c1.3,0.2,2,0.5,2.4,0.7
		c0.9,0.6,2,2.2,2.6,4.8C143.9,177.8,144.5,180.3,144.5,186.4 M122.7,187.4c0-0.7-0.5-1.2-1.2-1.2c-0.7,0-1.2,0.5-1.2,1.2
		c0,0.7,0.5,1.2,1.2,1.2C122.1,188.7,122.7,188.1,122.7,187.4 M125.6,190.5c0-0.7-0.5-1.2-1.2-1.2c-0.7,0-1.2,0.5-1.2,1.2
		c0,0.7,0.5,1.2,1.2,1.2C125,191.7,125.6,191.1,125.6,190.5 M141,179.5c0-2.5-0.8-4.8-1.3-6c-0.2-0.5-0.5-1.1-1.2-1.4
		c-0.7-0.3-1.7-0.7-7.1-0.7c-5.3,0-6.4,0.4-7.1,0.7c-0.7,0.3-1,0.9-1.2,1.4c-0.5,1.2-1.3,3.5-1.3,6c0,4.9,3.4,8.9,9.6,8.9
		C137.6,188.4,141,184.5,141,179.5 M135.2,173.7c0,0.3,0.3,0.6,0.6,0.6c0.3,0,0.6-0.3,0.6-0.6c0-0.3-0.3-0.6-0.6-0.6
		C135.5,173.1,135.2,173.4,135.2,173.7 M132.3,173.7c0,0.3,0.3,0.6,0.6,0.6c0.3,0,0.6-0.3,0.6-0.6c0-0.3-0.3-0.6-0.6-0.6
		C132.5,173.1,132.3,173.4,132.3,173.7 M129.3,173.7c0,0.3,0.3,0.6,0.6,0.6c0.3,0,0.6-0.3,0.6-0.6c0-0.3-0.3-0.6-0.6-0.6
		C129.6,173.1,129.3,173.4,129.3,173.7 M126.4,173.7c0,0.3,0.3,0.6,0.6,0.6c0.3,0,0.6-0.3,0.6-0.6c0-0.3-0.3-0.6-0.6-0.6
		C126.6,173.1,126.4,173.4,126.4,173.7 M135.2,176.1c0,0.3,0.3,0.6,0.6,0.6c0.3,0,0.6-0.3,0.6-0.6c0-0.3-0.3-0.6-0.6-0.6
		C135.5,175.5,135.2,175.8,135.2,176.1 M132.3,176.1c0,0.3,0.3,0.6,0.6,0.6c0.3,0,0.6-0.3,0.6-0.6c0-0.3-0.3-0.6-0.6-0.6
		C132.5,175.5,132.3,175.8,132.3,176.1 M129.3,176.1c0,0.3,0.3,0.6,0.6,0.6c0.3,0,0.6-0.3,0.6-0.6c0-0.3-0.3-0.6-0.6-0.6
		C129.6,175.5,129.3,175.8,129.3,176.1 M126.4,176.1c0,0.3,0.3,0.6,0.6,0.6c0.3,0,0.6-0.3,0.6-0.6c0-0.3-0.3-0.6-0.6-0.6
		C126.6,175.5,126.4,175.8,126.4,176.1 M140,195.9h-3.8v0.9l0.8,1.3h-5.5h-5.5l0.8-1.3v-0.9h-3.8l-2.4,3.6v1h4.1l0.6-1h6.2h6.2
		l0.6,1h4.1v-1L140,195.9z M141.3,188.7c0.7,0,1.2-0.5,1.2-1.2c0-0.7-0.5-1.2-1.2-1.2c-0.7,0-1.2,0.5-1.2,1.2
		C140.1,188.1,140.7,188.7,141.3,188.7 M138.4,191.7c0.7,0,1.2-0.5,1.2-1.2c0-0.7-0.5-1.2-1.2-1.2c-0.7,0-1.2,0.5-1.2,1.2
		C137.2,191.1,137.8,191.7,138.4,191.7 M140.6,165.2c0-0.4-2.4-1.4-6-1.4h-3.2h-3.2c-3.6,0-6,1-6,1.4c0,0.3,0.1,0.8,0.2,1.2
		c0.5-0.3,1.4-0.8,3.7-1.1l0.8,1h2.2l-1-1.1c0.7,0,1.5-0.1,2.4-0.1h0.9h0.9c0.9,0,1.7,0,2.4,0.1l-1,1.1h2.2l0.8-1
		c2.3,0.3,3.2,0.7,3.7,1.1C140.5,166,140.6,165.5,140.6,165.2"/>
</g>
</svg>
